<svg width="9" height="10" viewBox="0 0 9 10" fill="none" xmlns="http://www.w3.org/2000/svg">
<mask id="path-1-inside-1_270_14319" fill="white">
<path fill-rule="evenodd" clip-rule="evenodd" d="M4.80277 9.55705C5.97399 8.26727 8.22752 5.57541 8.22752 3.95765C8.22752 1.7719 6.38573 0 4.11376 0C1.84179 0 0 1.7719 0 3.95765C0 5.57541 2.25354 8.26727 3.42475 9.55705C3.79812 9.9682 4.42941 9.9682 4.80277 9.55705ZM4.11352 6.17358C5.24951 6.17358 6.1704 5.25219 6.1704 4.1156C6.1704 2.97901 5.24951 2.05762 4.11352 2.05762C2.97754 2.05762 2.05664 2.97901 2.05664 4.1156C2.05664 5.25219 2.97754 6.17358 4.11352 6.17358Z"/>
</mask>
<path fill-rule="evenodd" clip-rule="evenodd" d="M4.80277 9.55705C5.97399 8.26727 8.22752 5.57541 8.22752 3.95765C8.22752 1.7719 6.38573 0 4.11376 0C1.84179 0 0 1.7719 0 3.95765C0 5.57541 2.25354 8.26727 3.42475 9.55705C3.79812 9.9682 4.42941 9.9682 4.80277 9.55705ZM4.11352 6.17358C5.24951 6.17358 6.1704 5.25219 6.1704 4.1156C6.1704 2.97901 5.24951 2.05762 4.11352 2.05762C2.97754 2.05762 2.05664 2.97901 2.05664 4.1156C2.05664 5.25219 2.97754 6.17358 4.11352 6.17358Z" fill="white"/>
<path d="M4.80277 9.55705L5.54309 10.2293L4.80277 9.55705ZM3.42475 9.55705L4.16507 8.88479L4.16507 8.88479L3.42475 9.55705ZM7.22752 3.95765C7.22752 4.15273 7.15286 4.47092 6.94832 4.91642C6.7507 5.34685 6.46574 5.82403 6.12929 6.3153C5.45675 7.29733 4.63502 8.25426 4.06246 8.88479L5.54309 10.2293C6.14174 9.57005 7.03239 8.53617 7.77941 7.44539C8.15276 6.90024 8.50438 6.32052 8.7659 5.75092C9.0205 5.1964 9.22752 4.57145 9.22752 3.95765H7.22752ZM4.11376 1C5.87026 1 7.22752 2.3603 7.22752 3.95765H9.22752C9.22752 1.18351 6.9012 -1 4.11376 -1V1ZM1 3.95765C1 2.3603 2.35726 1 4.11376 1V-1C1.32633 -1 -1 1.18351 -1 3.95765H1ZM4.16507 8.88479C3.59251 8.25426 2.77078 7.29733 2.09823 6.3153C1.76179 5.82403 1.47683 5.34685 1.27921 4.91642C1.07466 4.47092 1 4.15273 1 3.95765H-1C-1 4.57145 -0.792973 5.1964 -0.538376 5.75092C-0.276858 6.32052 0.0747672 6.90024 0.44811 7.44539C1.19514 8.53617 2.08578 9.57005 2.68444 10.2293L4.16507 8.88479ZM4.06246 8.88479C4.06435 8.8827 4.07081 8.8769 4.08177 8.87211C4.09196 8.86765 4.10292 8.86542 4.11376 8.86542C4.1246 8.86542 4.13557 8.86765 4.14576 8.87211C4.15671 8.8769 4.16317 8.8827 4.16507 8.88479L2.68444 10.2293C3.45462 11.0775 4.77291 11.0775 5.54309 10.2293L4.06246 8.88479ZM5.1704 4.1156C5.1704 4.70041 4.69672 5.17358 4.11352 5.17358V7.17358C5.80229 7.17358 7.1704 5.80397 7.1704 4.1156H5.1704ZM4.11352 3.05762C4.69672 3.05762 5.1704 3.53079 5.1704 4.1156H7.1704C7.1704 2.42722 5.80229 1.05762 4.11352 1.05762V3.05762ZM3.05664 4.1156C3.05664 3.53079 3.53033 3.05762 4.11352 3.05762V1.05762C2.42475 1.05762 1.05664 2.42722 1.05664 4.1156H3.05664ZM4.11352 5.17358C3.53033 5.17358 3.05664 4.70041 3.05664 4.1156H1.05664C1.05664 5.80397 2.42475 7.17358 4.11352 7.17358V5.17358Z" fill="white" mask="url(#path-1-inside-1_270_14319)"/>
</svg>
