<svg width="18" height="18" viewBox="0 0 18 18" fill="none" xmlns="http://www.w3.org/2000/svg">
<path d="M5.25 11.25V6.75C5.25 6.3375 5.39688 5.98438 5.69063 5.69063C5.98438 5.39688 6.3375 5.25 6.75 5.25H12.8625L10.9313 3.31875L12 2.25L15.75 6L12 9.75L10.9313 8.7L12.8625 6.75H6.75V11.25H5.25ZM3.75 15.75C3.3375 15.75 2.98438 15.6031 2.69063 15.3094C2.39687 15.0156 2.25 14.6625 2.25 14.25V3H3.75V14.25H12.75V11.25H14.25V14.25C14.25 14.6625 14.1031 15.0156 13.8094 15.3094C13.5156 15.6031 13.1625 15.75 12.75 15.75H3.75Z" fill="white" fill-opacity="0.6"/>
</svg>
