<svg width="49" height="49" viewBox="0 0 49 49" fill="none" xmlns="http://www.w3.org/2000/svg">
<g clip-path="url(#clip0_123_2087)">
<path d="M31.4314 16.9256C27.8683 13.3625 22.0736 13.3626 18.5106 16.9256C16.0309 19.4053 15.1956 23.0598 16.331 26.3616L13.538 29.1546C12.7549 29.9376 12.5461 31.0864 12.9247 32.0652L12.3243 32.6655C11.6456 33.3443 11.6456 34.4405 12.3243 35.1192L13.264 36.0589C13.9427 36.7376 15.039 36.7377 15.7177 36.0589L16.318 35.4587C17.2968 35.8371 18.4454 35.6283 19.2285 34.8451L22.0215 32.0522C25.3103 33.1746 28.9778 32.3523 31.4575 29.8726C34.9945 26.2834 34.9945 20.4886 31.4315 16.9256L31.4314 16.9256ZM14.1643 35.1322L13.2246 34.1925C13.055 34.0229 13.0549 33.7356 13.2246 33.566L13.6553 33.1352L15.2216 34.7015L14.7909 35.1323C14.6213 35.3019 14.334 35.3019 14.1643 35.1322ZM16.2527 33.9054L14.4516 32.1043C13.8905 31.5431 13.8903 30.6294 14.4516 30.0682L15.5478 28.9719L19.3981 32.8222L18.3019 33.9184C17.7275 34.4666 16.8139 34.4665 16.2527 33.9054ZM22.0083 26.3487L22.8174 23.5818L24.762 25.5264L22.0083 26.3487ZM22.0736 30.6686L21.6821 30.5121L20.2986 31.8956L18.8368 30.4338L21.5253 27.7452C21.656 27.7713 21.7865 27.7453 21.9169 27.7192L25.7018 26.5967C26.015 26.5184 26.2499 26.2574 26.3283 25.9442C26.4066 25.6049 26.3022 25.2393 26.0412 24.9783L23.3657 22.3028C23.1046 22.0417 22.7393 21.9373 22.3999 22.0158C22.0866 22.094 21.8386 22.3158 21.7473 22.6422L20.625 26.4533C20.5989 26.5836 20.5728 26.7142 20.5988 26.8447L17.9233 29.5203L16.4615 28.0585L17.845 26.675L17.6884 26.2835C16.5268 23.3732 17.2316 20.058 19.4373 17.8524C22.4913 14.7984 27.4768 14.7984 30.5309 17.8524C33.5848 20.9064 33.585 25.8921 30.5309 28.9461C28.3123 31.1387 24.9971 31.8175 22.0737 30.6688L22.0736 30.6686ZM15.2454 11.0784L17.6684 13.5014L16.7326 14.4371L14.3097 12.0142L15.2454 11.0784ZM24.576 11.4884L24.576 8.06186L25.8993 8.06203L25.8993 11.4886L24.576 11.4884ZM36.7332 22.3225L40.1597 22.3225L40.1597 23.6457L36.7332 23.6457L36.7332 22.3225ZM34.6956 30.5286L37.1185 32.9516L36.1828 33.8873L33.7599 31.4644L34.6956 30.5286ZM35.0297 12.2315L35.9654 13.1672L33.5425 15.5901L32.6067 14.6544L35.0297 12.2315Z" fill="#3E3E3E"/>
</g>
<defs>
<clipPath id="clip0_123_2087">
<rect width="34.0901" height="34.0901" fill="white" transform="translate(24.1053) rotate(45)"/>
</clipPath>
</defs>
</svg>
