<svg width="12" height="12" viewBox="0 0 12 12" fill="none" xmlns="http://www.w3.org/2000/svg">
<g clip-path="url(#clip0_270_14598)">
<path d="M4.9356 5.76923C5.22989 5.64005 5.49933 5.46042 5.73176 5.23846C5.9897 4.99177 6.195 4.69539 6.33526 4.36718C6.47551 4.03898 6.54782 3.68576 6.54782 3.32884C6.54782 2.97193 6.47551 2.61871 6.33526 2.2905C6.195 1.9623 5.9897 1.66591 5.73176 1.41923C5.20505 0.907906 4.49851 0.624044 3.76445 0.628844C3.03039 0.624044 2.32384 0.907906 1.79714 1.41923C1.53919 1.66591 1.3339 1.9623 1.19364 2.2905C1.05339 2.61871 0.981076 2.97193 0.981076 3.32884C0.981076 3.68576 1.05339 4.03898 1.19364 4.36718C1.3339 4.69539 1.53919 4.99177 1.79714 5.23846C2.02438 5.45877 2.28784 5.63831 2.57599 5.76923C1.98932 6.00354 1.48594 6.40763 1.13031 6.92975C0.774692 7.45188 0.583017 8.06828 0.579834 8.7V11.5846C0.596246 11.6942 0.651094 11.7945 0.734583 11.8674C0.818072 11.9403 0.924763 11.9812 1.0356 11.9827H6.42406C6.5349 11.9812 6.6416 11.9403 6.72509 11.8674C6.80857 11.7945 6.86342 11.6942 6.87983 11.5846V8.7C6.88088 8.07421 6.69686 7.46208 6.35092 6.9406C6.00498 6.41912 5.51256 6.01158 4.9356 5.76923Z" fill="white"/>
<path d="M9.44136 5.1404C9.73318 5.01238 10.0006 4.83475 10.2317 4.6154C10.4897 4.36871 10.695 4.07233 10.8352 3.74412C10.9755 3.41592 11.0478 3.0627 11.0478 2.70578C11.0478 2.34886 10.9755 1.99565 10.8352 1.66744C10.695 1.33924 10.4897 1.04285 10.2317 0.796167C9.70299 0.287775 8.99795 0.0038147 8.26444 0.0038147C7.53092 0.0038147 6.82589 0.287775 6.29713 0.796167C6.1689 0.919214 6.05296 1.05447 5.95098 1.20001C6.04795 1.26699 6.14045 1.34023 6.2279 1.41924C6.68138 1.85372 6.96529 2.43551 7.02872 3.06032C7.09216 3.68513 6.93097 4.31211 6.57405 4.82886C6.73256 4.94761 6.90266 5.05005 7.08175 5.13463C6.61797 5.32263 6.20492 5.6171 5.87598 5.99424C6.34292 6.27514 6.7295 6.67176 6.99833 7.14576C7.26717 7.61975 7.40916 8.15509 7.41059 8.70001V11.3712H10.9644C11.0753 11.3697 11.182 11.3288 11.2655 11.2559C11.3489 11.1829 11.4038 11.0827 11.4202 10.9731V8.07694C11.4196 7.44622 11.231 6.83 10.8785 6.30696C10.526 5.78391 10.0257 5.37778 9.44136 5.1404Z" fill="white"/>
</g>
<defs>
<clipPath id="clip0_270_14598">
<rect width="12" height="12" fill="white"/>
</clipPath>
</defs>
</svg>
