<svg width="15" height="19" viewBox="0 0 15 19" fill="none" xmlns="http://www.w3.org/2000/svg">
<circle cx="7.5" cy="9.5" r="7.5" fill="#909090"/>
<path d="M6.716 11.626C6.296 9.288 9.586 8.672 9.586 7.076C9.586 6.11 8.9 5.41 7.472 5.41C6.506 5.41 5.624 5.83 4.812 6.67L4.07 5.984C4.994 5.004 6.086 4.346 7.598 4.346C9.572 4.346 10.846 5.368 10.846 6.978C10.846 9.092 7.5 9.526 7.864 11.626H6.716ZM7.318 15.07C6.814 15.07 6.422 14.72 6.422 14.16C6.422 13.6 6.828 13.222 7.318 13.222C7.808 13.222 8.214 13.6 8.214 14.16C8.214 14.72 7.808 15.07 7.318 15.07Z" fill="white"/>
</svg>
