<svg width="8" height="8" viewBox="0 0 8 8" fill="none" xmlns="http://www.w3.org/2000/svg">
<path d="M6.92109 4.16983C7.05234 3.99639 7.125 3.78389 7.125 3.5628C7.125 3.21202 6.92891 2.87999 6.61328 2.69483C6.53203 2.64717 6.43951 2.62209 6.34531 2.62217H4.47188L4.51875 1.66202C4.52969 1.42999 4.44766 1.20967 4.28828 1.04171C4.21007 0.958914 4.11571 0.893043 4.01103 0.848162C3.90635 0.803281 3.79358 0.780344 3.67969 0.780767C3.27344 0.780767 2.91406 1.05421 2.80625 1.44561L2.13516 3.8753H2.13281V7.21905H5.82266C5.89453 7.21905 5.96484 7.20499 6.02969 7.17686C6.40156 7.01827 6.64141 6.65499 6.64141 6.25186C6.64141 6.15342 6.62734 6.05655 6.59922 5.9628C6.73047 5.78936 6.80312 5.57686 6.80312 5.35577C6.80312 5.25733 6.78906 5.16046 6.76094 5.06671C6.89219 4.89327 6.96484 4.68077 6.96484 4.45967C6.96328 4.36124 6.94922 4.26358 6.92109 4.16983ZM0.875 4.1253V6.96905C0.875 7.10733 0.986719 7.21905 1.125 7.21905H1.63281V3.8753H1.125C0.986719 3.8753 0.875 3.98702 0.875 4.1253Z" fill="#FFDE67"/>
</svg>
